<?xml version="1.0" encoding="UTF-8"?>
<svg version="1.1" viewBox="0 0 800 800" width="1280" height="1280" xmlns="http://www.w3.org/2000/svg">
<path transform="translate(0)" d="m0 0h800v800h-800z" fill="#FCFCFC"/>
<path transform="translate(386,220)" d="m0 0h25l20 4 15 6 14 8 9 7 11 10 11 15 6 11 5 12 4 16 1 6v23l-3 16-6 16-7 13-13 19-8 13-8 17-5 16-3 16-1 11v24l-2 3-9 1h-38l-1-1v-46l1-2h43l1-12h-43l-2-2v-21l1-2 23-1 7-3 5-5 3-6v-8l-4-8-5-5-4-2-38-1v50l-1 13-12 1-25 1-1 11h37l1 1 1 13-1 34-1 1h-38l-3-1-2-40-5-21-6-16-10-19-14-20-9-16-6-18-3-16v-19l3-18 7-19 8-14 8-10 6-7 14-11 14-8 15-6z" fill="#FBFCFC"/>
<path transform="translate(391,205)" d="m0 0h20l17 3 16 5 17 8 13 9 14 12 10 12 11 18 8 20 4 18 1 7v18l-3 18-7 21-9 17-12 17-7 11-8 16-4 13-3 17-2 39-5 8-8 5-5 1h-99l-9-3-6-7-2-4-1-12-1-26-3-18-6-18-8-15-18-26-8-16-5-14-4-18v-29l4-18 6-17 10-18 9-12 9-10 14-11 14-8 14-6 18-5zm-5 15-18 4-21 9-12 8-12 10-9 11-9 14-6 14-4 14-2 13v19l4 20 6 16 8 14 14 20 11 21 7 21 3 14 2 40 3 1h38l1-1 1-36-1-11-1-1h-37l1-11 25-1 12-1 1-14v-49l38 1 7 4 5 8 1 3v8l-4 8-7 5-4 1-23 1-1 2v21l2 2h43l-1 12h-43l-1 2v46l1 1h38l9-1 2-3v-24l2-17 4-17 6-16 10-19 12-17 8-13 7-16 4-15 1-7v-23l-4-19-5-13-5-10-10-14-10-11-10-8-13-8-16-7-17-4-6-1z" fill="#3A8BFC"/>
<path transform="translate(346,543)" d="m0 0h92l20 1 2 5v5l-4 3-14 1h-78l-20-1-3-2-1-6 3-5z" fill="#3B8CFC"/>
<path transform="translate(346,523)" d="m0 0h111l3 3v8l-1 2-4 1-16 1h-78l-17-1-3-2-1-7 1-3z" fill="#3B8CFC"/>
<path transform="translate(345,563)" d="m0 0h85l27 1 2 2v9l-5 2-17 1h-55l-37-1-5-5 1-6z" fill="#3A8BFC"/>
<path transform="translate(364,584)" d="m0 0h81l1 3-5 11-2 5h-78l-6-16v-2z" fill="#398BFC"/>
<path transform="translate(146,330)" d="m0 0h84l4 4v6l-3 4-8 1h-69l-10-1-1-2v-9z" fill="#3A8BFC"/>
<path transform="translate(397,81)" d="m0 0h8l2 1 1 58v21l-1 8-3 2h-9l-2-3v-83z" fill="#3A8BFC"/>
<path transform="translate(520,452)" d="m0 0 6 1 16 15 36 36v2h2l4 5 1 6-4 4h-6l-12-11-17-17-8-7-8-8v-2h-2l-7-8-5-6v-6z" fill="#3A8BFC"/>
<path transform="translate(220,153)" d="m0 0 6 2 11 10 8 7 38 38 2 4v5l-5 4-5-1-10-9-25-25-8-7-14-15-2-3 1-7z" fill="#398BFC"/>
<path transform="translate(277,452)" d="m0 0 5 1 2 2 1 6-7 8-12 13-8 7-14 14-7 8-10 9-6 2-5-4v-6l7-8 51-51z" fill="#3A8BFC"/>
<path transform="translate(588,330)" d="m0 0h42l26 1 1 1v11l-3 1h-86l-1-2v-9l2-2z" fill="#3A8BFC"/>
<path transform="translate(577,153)" d="m0 0 5 1 3 5-3 7-56 56-6 1-5-5 1-5 7-8 49-49z" fill="#3B8CFC"/>
<path transform="translate(289,666)" d="m0 0h13l6 2 3 7v27l-4 6-5 2h-14l-2-2v-41z" fill="#1477FC"/>
<path transform="translate(260,666)" d="m0 0h13l5 6 1 5v22l-2 7-6 4-9 1-6-4-3-6v-22l2-9z" fill="#1577FC"/>
<path transform="translate(486,666)" d="m0 0h11l5 5 2 5v25l-3 6-4 3-5 1-9-2-4-5-1-4v-14l1-13 5-6z" fill="#1678FC"/>
<path transform="translate(222,666)" d="m0 0h17l5 3 3 5-1 9-3 5 1 9 4 11v2l-3 1-7-2-4-16-4-3v19l-1 1h-8l-1-5 1-38z" fill="#3B8CFC"/>
<path transform="translate(593,666)" d="m0 0 7 1-1 17h9v-16l1-2h6l1 1 1 28v15h-9v-20h-9l1 20h-8l-1-1v-41z" fill="#1C7BFC"/>
<path transform="translate(194,666)" d="m0 0h13l5 2 3 6v10l-3 5-4 2h-10l1 6v12l-1 1h-8l-1-1v-36l1-6z" fill="#398BFC"/>
<path transform="translate(425,666)" d="m0 0h5l5 12 4 10 1-1 1-21h6l1 2v42h-7l-6-17-3-5v22h-8v-43z" fill="#3789FC"/>
<path transform="translate(342,666)" d="m0 0h11l5 5 1 3v7l-8-1-1-7-5-1-2 6v12l1 13 4 1 3-1 1-8v-2l-5-2v-3l2-1h10l1 4v19h-20l-5-6-1-5v-24l3-6z" fill="#378AFC"/>
<path transform="translate(459,554)" d="m0 0v3l-2 1-2 5 2 1h-114l1-7h98l14-1z" fill="#D2EDFB"/>
<path transform="translate(342,536)" d="m0 0 19 1h78l19-1-3 4v3l3 1h-115l2-3v-3l-3-1z" fill="#D2EDFB"/>
<path transform="translate(345,517)" d="m0 0h109l-4 4 6 1v1l-11 1h-102l3-3z" fill="#D2EDFB"/>
<path transform="translate(569,666)" d="m0 0h9l5 5 1 3v7l-1 1h-6l-1-1v-9h-7l-1 15v14l1 3 6-1 2-10h5l2 2-1 9-5 6-9 1-6-3-3-7v-27l3-6z" fill="#1678FC"/>
<path transform="translate(542,666)" d="m0 0h12l1 1v5h-11v11l8 1 1 4-1 2h-7l-1 5 1 8 10 1v5l-1 1h-18l-1-3v-18l1-21z" fill="#398BFC"/>
<path transform="translate(365,666)" d="m0 0h6l2 2 3 10 3 1 1-7 2-6h6l-1 7-5 15-1 21-1 1h-7l-1-1-1-16-4-17-2-5z" fill="#3A8BFC"/>
<path transform="translate(457,666)" d="m0 0h16l1 1v5h-10v13l8-1v5l-1 1h-6v19l-1 1h-8l-1-1v-42z" fill="#3B8CFC"/>
<path transform="translate(510,666)" d="m0 0 21 1 1 4-1 1h-7l1 37-1 1h-8l-1-1-1-36-6-2v-4z" fill="#3B8CFC"/>
<path transform="translate(222,666)" d="m0 0h17l5 3 3 5-1 9-3 5 1 9 4 11v2l-3 1-7-2-2-8v-10l-1-5 4-2v-10l-2-1h-9l-1 3v-3l-4-1-1 4-1-9z" fill="#1578FC"/>
<path transform="translate(319,666)" d="m0 0h7l1 1 1 43-6 1-4-1v-43z" fill="#3B8CFC"/>
<path transform="translate(572,156)" d="m0 0h3l-1 5-7 7-4 5h-2v2l-5 4-1 2h-2v2l-8 7-11 11-7 6-7 8-1 5h-3l-1-5 4-6z" fill="#1778FC"/>
<path transform="translate(404,390)" d="m0 0h15l9 1 3 5-1 6-2 2h-24l-1-2v-9z" fill="#F3F9FC"/>
<path transform="translate(409,666)" d="m0 0h6l1 1 1 42-1 1h-8v-43z" fill="#0D73FC"/>
<path transform="translate(441,666)" d="m0 0h6l1 2v42h-7l-3-11-1-13 2 2 1-1z" fill="#3A8BFC"/>
<path transform="translate(593,666)" d="m0 0 7 1v4h-2v12l-1 4 3 15v8h-8l-1-1v-41z" fill="#1578FC"/>
<path transform="translate(264,671)" d="m0 0 6 1 1 7v22l-4 4-4-1-2-2v-28z" fill="#F3F9FC"/>
<path transform="translate(517,457)" d="m0 0 2 1 3 6 5 5v2l4 2 4 5 3 3v2l5 1 26 26 11 8v2h-6l-10-9-18-18-8-7-8-8v-2h-2l-7-8-5-6z" fill="#1376FC"/>
<path transform="translate(489,671)" d="m0 0 6 1 1 3v27l-4 3-5-1v-32z" fill="#F6FAFC"/>
<path transform="translate(294,672)" d="m0 0h7l2 2v26l-5 5-4-2z" fill="#F3F9FC"/>
<path transform="translate(286,670)" d="m0 0 4 8 2 1 1-7h1l1 10v21l1 2-6-1-1 5h13v1h-14l-2-2z" fill="#3B8CFC"/>
<path transform="translate(342,666)" d="m0 0h11l5 5 1 3v7l-8-1-1-7-1-1h-6l-2 12-2 2-1-1-2 2-2-1v-11l3-6z" fill="#1678FC"/>
<path transform="translate(522,672)" d="m0 0h1v8l-4 1 1 8 3 1 1 17v3h-8v-36z" fill="#0D74FC"/>
<path transform="translate(582,158)" d="m0 0 3 2-3 6-41 41h-2l2-7 4-4h2l2-4 6-5 8-7 3-1 2-4 2-2 2-1 1-4 4-1 1-3 3-2z" fill="#1678FC"/>
<path transform="translate(199,667)" d="m0 0h11l4 4 1 3v10l-3 5-2 1h-10l-1-4 9-2v-8l-4-4-5-1z" fill="#1276FC"/>
<path transform="translate(248,192)" d="m0 0 4 1 7 7v2l4 2 13 13v2h2l1 3-5-1-8-7-18-18z" fill="#1779FC"/>
<path transform="translate(260,675)" d="m0 0h1v27l-2-4-4 6-2-3v-22l2 2 1-2h3z" fill="#3A8BFC"/>
<path transform="translate(343,671)" d="m0 0 2 1-2 6v24l-1-2-6-1v5h-1l-1-5v-13l2-3 3 2 1-1 2-12z" fill="#3B8CFC"/>
<path transform="translate(454,576)" d="m0 0 3 1-13 3-2 2v-3h-85l-12-1v-1h92z" fill="#D2EDFB"/>
<path transform="translate(608,668)" d="m0 0h1l1 15 4 1v5l-3 1-2 3-1-3h-9v8h-1l-2-12 1-9 1-6h1v13h9z" fill="#3B8CFC"/>
<path transform="translate(536,698)" d="m0 0 3 2 4 1v2l12 1v5l-1 1h-18z" fill="#1779FC"/>
<path transform="translate(542,666)" d="m0 0h12l1 1v5h-12l-1 5-3 1h-3v-10z" fill="#1276FC"/>
<path transform="translate(198,672)" d="m0 0h8l3 4v6l-3 3h-7l-2-5v-6z" fill="#F3F9FC"/>
<path transform="translate(230,672)" d="m0 0h7l3 2v8l-3 3h-8v-12z" fill="#F3F9FC"/>
<path transform="translate(219,156)" d="m0 0 1 4 7 8 1 3 5 3 5 7v2l-6-2-14-15-2-3v-5z" fill="#1678FC"/>
<path transform="translate(408,667)" d="m0 0h1v42l5-1v-8l-2 1-1-8 1-2h2l1-24h1l1 42-1 1h-8z" fill="#3B8CFC"/>
<path transform="translate(517,457)" d="m0 0 2 1 3 6 5 5v2l4 2 4 5 3 3 3 5 5 6-4-2-12-12v-2h-2l-7-8-5-6z" fill="#1F7DFC"/>
<path transform="translate(365,666)" d="m0 0h6l2 2 2 7v5l-3-1v8l-3-4-4-12z" fill="#1578FC"/>
<path transform="translate(609,666)" d="m0 0h6l1 3-1 19-2-4-4-1z" fill="#0E74FC"/>
<path transform="translate(441,666)" d="m0 0h6l1 2v14l-2 7h-1l-1-7-2 3z" fill="#1577FC"/>
<path transform="translate(336,699)" d="m0 0 6 1 3 4 7 2v2l-5 2h-7l-4-4z" fill="#1175FC"/>
<path transform="translate(349,687)" d="m0 0h10v13l-2-2-3 1v-4h-2v-2l-5-2v-3z" fill="#1577FC"/>
<path transform="translate(382,666)" d="m0 0h6l-1 7-4 10-4-2 1-9z" fill="#1879FC"/>
<path transform="translate(425,693)" d="m0 0 2 3v2h2l2 3h1v9h-8v-16z" fill="#3B8CFC"/>
<path transform="translate(267,476)" d="m0 0 2 1-14 15-14 14-3 1 2-4 8-8 3-4h2l2-4h2l2-4h2v-2z" fill="#1879FC"/>
<path transform="translate(372,688)" d="m0 0 2 1 2 12h2l3 6-1 3h-7l-1-1z" fill="#1779FC"/>
<path transform="translate(510,666)" d="m0 0h5v2l3 1-1 5-1 35h-1l-1-36-6-2v-4z" fill="#227FFC"/>
<path transform="translate(523,672)" d="m0 0h1v35h-1l-1-16-3-2v-8l4-1z" fill="#3B8CFC"/>
<path transform="translate(481,684)" d="m0 0 3 2v7l-1 4-3 3h-2v-14h3z" fill="#3B8CFC"/>
<path transform="translate(443,700)" d="m0 0 4 1 1 9h-7l-1-2v-7z" fill="#1678FC"/>
<path transform="translate(608,668)" d="m0 0h1l1 15 4 1v5l-3 1-2 3-1-3-2-1 1-5z" fill="#3B8CFC"/>
<path transform="translate(431,673)" d="m0 0h2l4 11 2 15h-2l-4-14z" fill="#1477FC"/>
<path transform="translate(319,666)" d="m0 0h7l1 1-1 7-4 1-3-2z" fill="#1276FC"/>
<path transform="translate(456,702)" d="m0 0h7v6l2 1-1 1h-8z" fill="#1376FC"/>
<path transform="translate(228,172)" d="m0 0 4 1 3 3 3 5v2l-6-2-5-5z" fill="#1477FC"/>
<path transform="translate(548,666)" d="m0 0h6l1 1v5h-11l2-4h2z" fill="#1D7CFC"/>
<path transform="translate(281,455)" d="m0 0h3l1 6-7 8-3 3h-2l2-4 5-5z" fill="#1A7AFC"/>
<path transform="translate(437,699)" d="m0 0 3 4 1 7h7v1h-8l-5-3v-6z" fill="#D2EDFB"/>
<path transform="translate(222,155)" d="m0 0 5 1 5 4-1 5-8-6-2-3z" fill="#1176FC"/>
<path transform="translate(227,703)" d="m0 0 1 2h2l-1 5h-7v-6l5 1z" fill="#1377FC"/>
<path transform="translate(427,687)" d="m0 0 3 3 1 13-2-2v-3h-2l-1-2v-8z" fill="#0C73FD"/>
<path transform="translate(547,684)" d="m0 0h5l1 4-1 2h-7v-5z" fill="#1678FC"/>
<path transform="translate(227,503)" d="m0 0 2 1-6 7-4 5h-3l2-5z" fill="#0C73FD"/>
<path transform="translate(527,667)" d="m0 0 5 1-1 4h-8l1-4z" fill="#1477FC"/>
<path transform="translate(190,667)" d="m0 0h5l-1 8h-2l-1 3-1-1z" fill="#0D73FC"/>
<path transform="translate(440,667)" d="m0 0h1v20l-2 2-2-5 1-2h2z" fill="#D2EDFB"/>
<path transform="translate(467,684)" d="m0 0h5v5l-1 1h-5z" fill="#1779FC"/>
<path transform="translate(600,685)" d="m0 0h7l1 2-2 3-5-1z" fill="#0C73FD"/>
<path transform="translate(532,668)" d="m0 0h4v21h-1l-1-17-3-1z" fill="#D2EDFB"/>
<path transform="translate(397,81)" d="m0 0h8l1 3-5 1-3 1-2-4z" fill="#1879FC"/>
<path transform="translate(464,667)" d="m0 0h10l-1 4h-6v-3z" fill="#0D73FC"/>
<path transform="translate(455,667)" d="m0 0h5l1 2-2 4-3 1z" fill="#0F74FC"/>
<path transform="translate(578,507)" d="m0 0 5 3v6l-5-5-1-2z" fill="#1175FC"/>
<path transform="translate(431,687)" d="m0 0 4 4-1 3h-2v7h-1z" fill="#D2EDFB"/>
</svg>
